<svg width="1000" height="1000" viewBox="0 0 1000 1000" fill="none" xmlns="http://www.w3.org/2000/svg">
<path d="M838.277 849.025C844.632 863.82 838.301 877.837 824.663 886.237C810.894 894.717 791.591 895.889 776.062 884.411L599.808 754.141C593.236 749.283 588.996 742.873 587.37 736.103L554.206 598.015C547.008 568.042 519.048 554.637 493.816 554.974C468.586 555.31 441.032 569.469 434.869 599.691L407.018 736.274C405.601 743.224 401.446 749.858 394.823 754.909L225.168 884.269C209.885 895.922 190.584 895.043 176.642 886.752C162.82 878.532 156.241 864.592 162.285 849.739L455.509 129.114C461.208 115.109 475.753 107.125 491.938 107.001C508.121 106.878 522.858 114.643 528.851 128.597L838.277 849.025Z" fill="#0169FF" stroke="#0169FF" stroke-width="22"/>
</svg>
