<svg width="4000" height="2250" viewBox="0 0 4000 2250" fill="none" xmlns="http://www.w3.org/2000/svg">
<path d="M835.342 664.436L1231.59 1556.06C1240.27 1575.58 1231.53 1594.14 1213.03 1605.15C1194.4 1616.24 1168.15 1617.82 1147.05 1602.75L921.339 1441.53C912.385 1435.13 906.59 1426.67 904.368 1417.73L861.898 1246.83C853.032 1211.15 818.722 1195.25 787.63 1195.65C756.545 1196.05 722.728 1212.85 715.136 1248.83L679.469 1417.87C677.532 1427.05 671.854 1435.8 662.828 1442.45L445.566 1602.55C424.803 1617.85 398.546 1616.65 379.689 1605.82C360.941 1595.04 351.858 1576.59 360.113 1556.98L735.618 665.119C743.407 646.618 763.308 636.161 785.152 636C806.994 635.84 827.151 646.005 835.342 664.436Z" fill="#0169FF" stroke="#0169FF" stroke-width="22"/>
<path d="M1695.2 950.001C1700.8 950.001 1704.4 952.601 1706 957.801L1850.6 1364H1824.8L1773.8 1218.2H1583L1532 1364H1506.2L1650.8 957.801C1652.4 952.601 1656 950.001 1661.6 950.001H1695.2ZM1658 1004L1590.8 1196.6H1766L1698.8 1004C1696.4 998.401 1694.2 992.801 1692.2 987.201C1690.6 981.601 1688.8 976.001 1686.8 970.401H1670C1668 976.001 1666 981.601 1664 987.201C1662 992.801 1660 998.401 1658 1004ZM2033.24 1067.6C2044.84 1067.6 2058.64 1068.4 2074.64 1070C2090.64 1071.6 2105.04 1074.6 2117.84 1079L2113.64 1095.2C2102.44 1093.2 2089.24 1091.8 2074.04 1091C2059.24 1089.8 2047.04 1089.2 2037.44 1089.2C2009.84 1089.2 1987.84 1093 1971.44 1100.6C1955.04 1108.2 1943.24 1121.6 1936.04 1140.8C1928.84 1159.6 1925.24 1185.8 1925.24 1219.4C1925.24 1253 1928.84 1279.4 1936.04 1298.6C1943.24 1317.4 1955.04 1330.6 1971.44 1338.2C1987.84 1345.8 2009.84 1349.6 2037.44 1349.6C2043.04 1349.6 2050.64 1349.4 2060.24 1349C2070.24 1348.6 2080.64 1348 2091.44 1347.2C2102.24 1346 2112.04 1344.6 2120.84 1343L2124.44 1359.8C2110.84 1363.4 2096.04 1366.2 2080.04 1368.2C2064.44 1370.2 2049.04 1371.2 2033.84 1371.2C2001.44 1371.2 1975.44 1366.4 1955.84 1356.8C1936.24 1346.8 1922.04 1330.8 1913.24 1308.8C1904.44 1286.4 1900.04 1256.6 1900.04 1219.4C1900.04 1182.2 1904.44 1152.6 1913.24 1130.6C1922.04 1108.2 1936.24 1092.2 1955.84 1082.6C1975.44 1072.6 2001.24 1067.6 2033.24 1067.6ZM2348.51 1074.8V1095.2H2245.31V1300.4C2245.31 1330.8 2260.71 1346 2291.51 1346H2341.91L2344.91 1363.4C2336.51 1365 2326.51 1366.2 2314.91 1367C2303.71 1367.8 2295.31 1368.2 2289.71 1368.2C2266.91 1368.2 2249.71 1362.6 2238.11 1351.4C2226.91 1339.8 2221.31 1323.6 2221.31 1302.8V1095.2H2169.11V1077.8L2221.31 1075.4V985.401H2245.31V1074.8H2348.51ZM2436.97 954.201C2443.37 954.201 2446.57 957.401 2446.57 963.801V999.801C2446.57 1006.2 2443.37 1009.4 2436.97 1009.4H2426.77C2420.37 1009.4 2417.17 1006.2 2417.17 999.801V963.801C2417.17 957.401 2420.37 954.201 2426.77 954.201H2436.97ZM2443.57 1074.8V1364H2420.17V1074.8H2443.57ZM2791.31 1074.8L2676.11 1357.4C2673.71 1361.8 2670.11 1364 2665.31 1364H2641.31C2636.91 1364 2633.51 1361.8 2631.11 1357.4L2515.91 1074.8H2541.71L2628.11 1290.8C2631.71 1300 2635.31 1309.2 2638.91 1318.4C2642.51 1327.2 2646.11 1336 2649.71 1344.8H2657.51C2661.11 1335.6 2664.71 1326.6 2668.31 1317.8C2671.91 1308.6 2675.71 1299.6 2679.71 1290.8L2765.51 1074.8H2791.31ZM2970 1067.6C3009.2 1067.6 3038.2 1074.8 3057 1089.2C3076.2 1103.2 3086 1124.4 3086.4 1152.8C3086.8 1178.4 3082.2 1198 3072.6 1211.6C3063 1224.8 3046.4 1231.4 3022.8 1231.4H2868.6C2869.8 1261.4 2874.2 1285 2881.8 1302.2C2889.8 1319.4 2901.6 1331.6 2917.2 1338.8C2933.2 1346 2953.4 1349.6 2977.8 1349.6C2996.2 1349.6 3014.2 1348.8 3031.8 1347.2C3049.4 1345.6 3064.4 1344 3076.8 1342.4L3079.8 1359.2C3072.6 1361.6 3062.8 1363.6 3050.4 1365.2C3038 1367.2 3025 1368.6 3011.4 1369.4C2997.8 1370.6 2985.6 1371.2 2974.8 1371.2C2928 1371.2 2894.4 1359.6 2874 1336.4C2853.6 1312.8 2843.4 1273.4 2843.4 1218.2C2843.4 1181 2847.6 1151.4 2856 1129.4C2864.8 1107.4 2878.4 1091.6 2896.8 1082C2915.6 1072.4 2940 1067.6 2970 1067.6ZM2971.2 1089.2C2946 1089.2 2926 1093.2 2911.2 1101.2C2896.4 1108.8 2885.6 1121.6 2878.8 1139.6C2872.4 1157.2 2869 1181.2 2868.6 1211.6H3019.2C3035.6 1211.6 3047 1206.4 3053.4 1196C3059.8 1185.6 3062.6 1171.6 3061.8 1154C3061.4 1131.2 3053.8 1114.8 3039 1104.8C3024.2 1094.4 3001.6 1089.2 2971.2 1089.2ZM3261.76 950.001V1290.2C3261.76 1342.6 3236.76 1368.6 3186.76 1368.2C3180.76 1368.2 3173.56 1367.6 3165.16 1366.4C3156.76 1365.6 3149.76 1364.6 3144.16 1363.4L3147.16 1346.6H3180.76C3218.36 1346.6 3237.16 1327.8 3237.16 1290.2V950.001H3261.76ZM3484.44 943.401C3503.64 943.401 3522.84 944.201 3542.04 945.801C3561.64 947.001 3580.84 949.001 3599.64 951.801L3597.24 969.801C3579.64 969.001 3561.24 968.201 3542.04 967.401C3522.84 966.201 3503.84 965.601 3485.04 965.601C3467.04 965.601 3451.44 966.201 3438.24 967.401C3425.44 968.601 3414.84 971.801 3406.44 977.001C3398.04 982.201 3391.84 990.601 3387.84 1002.2C3384.24 1013.8 3382.44 1030 3382.44 1050.8C3382.44 1078.8 3387.04 1099.2 3396.24 1112C3405.84 1124.4 3421.84 1132.4 3444.24 1136L3534.24 1151C3564.64 1155.8 3586.04 1166.6 3598.44 1183.4C3611.24 1200.2 3617.64 1226.2 3617.64 1261.4C3617.64 1294.2 3612.64 1318.4 3602.64 1334C3593.04 1349.2 3578.64 1359.2 3559.44 1364C3540.24 1368.4 3516.44 1370.6 3488.04 1370.6C3472.44 1370.6 3454.44 1370.2 3434.04 1369.4C3413.64 1368.6 3390.44 1366.4 3364.44 1362.8L3366.24 1344.2C3383.44 1345.4 3398.64 1346.4 3411.84 1347.2C3425.04 1347.6 3437.64 1348 3449.64 1348.4C3461.64 1348.4 3474.84 1348.4 3489.24 1348.4C3514.44 1348 3534.44 1345.8 3549.24 1341.8C3564.44 1337.8 3575.44 1329.8 3582.24 1317.8C3589.04 1305.4 3592.44 1286.6 3592.44 1261.4C3592.44 1231 3587.44 1209.8 3577.44 1197.8C3567.84 1185.4 3551.44 1177.4 3528.24 1173.8L3438.24 1158.8C3408.64 1154.4 3387.64 1143.6 3375.24 1126.4C3363.24 1108.8 3357.24 1083.4 3357.24 1050.2C3357.24 1025.4 3359.84 1005.8 3365.04 991.401C3370.24 977.001 3378.04 966.401 3388.44 959.601C3399.24 952.401 3412.44 947.801 3428.04 945.801C3444.04 943.801 3462.84 943.001 3484.44 943.401Z" fill="#0169FF"/>
<path d="M2482.94 913.073C2490.65 909.117 2498.94 917.272 2495.12 925.049L2474.2 967.634C2472.95 970.187 2472.97 973.182 2474.27 975.712L2495.93 1017.93C2499.89 1025.64 2491.74 1033.93 2483.96 1030.11L2441.37 1009.19C2438.82 1007.94 2435.82 1007.96 2433.29 1009.26L2391.08 1030.92C2383.37 1034.88 2375.07 1026.72 2378.89 1018.95L2399.82 976.362C2401.07 973.81 2401.04 970.814 2399.75 968.284L2378.08 926.07C2374.13 918.361 2382.28 910.062 2390.06 913.884L2432.64 934.807C2435.2 936.061 2438.19 936.034 2440.72 934.736L2482.94 913.073Z" fill="#0169FF"/>
</svg>
