<svg width="1000" height="1000" viewBox="0 0 1000 1000" fill="none" xmlns="http://www.w3.org/2000/svg">
<rect width="1000" height="1000" rx="100" fill="#0169FF"/>
<path d="M819.609 839.843C823.95 849.952 820.241 859.877 809.378 866.568C798.301 873.39 782.971 874.21 770.719 865.154L600.573 739.398C595.506 735.653 592.487 730.906 591.356 726.198L559.341 592.895C551.34 559.577 520.391 545.333 493.769 545.688C467.149 546.043 436.589 561.129 429.73 594.762L402.844 726.612C401.863 731.426 398.924 736.321 393.829 740.206L230.053 865.083C218.018 874.259 202.695 873.689 191.457 867.005C180.416 860.439 176.54 850.53 180.662 840.401L463.724 144.749C467.825 134.671 478.658 128.104 492.11 128.001C505.559 127.899 516.579 134.305 520.906 144.38L819.609 839.843Z" stroke="white" stroke-width="36"/>
</svg>
