<svg width="3857" height="1500" viewBox="0 0 3857 1500" fill="none" xmlns="http://www.w3.org/2000/svg">
<path d="M1185.59 1181.06C1194.27 1200.58 1185.53 1219.14 1167.03 1230.15C1148.4 1241.24 1122.15 1242.82 1101.05 1227.75L875.339 1066.53C866.385 1060.13 860.59 1051.67 858.368 1042.73L815.898 871.83C807.032 836.153 772.722 820.248 741.63 820.649C710.545 821.049 676.728 837.846 669.136 873.828L633.469 1042.87C631.532 1052.05 625.854 1060.8 616.828 1067.45L399.566 1227.55C378.803 1242.85 352.546 1241.65 333.689 1230.82C314.941 1220.04 305.858 1201.59 314.113 1181.98L689.618 290.119C697.407 271.618 717.308 261.161 739.152 261C760.994 260.84 781.151 271.005 789.342 289.436L1185.59 1181.06Z" fill="#0169FF" stroke="#0169FF" stroke-width="22"/>
<path d="M1649.2 575.001C1654.8 575.001 1658.4 577.601 1660 582.801L1804.6 989.001H1778.8L1727.8 843.201H1537L1486 989.001H1460.2L1604.8 582.801C1606.4 577.601 1610 575.001 1615.6 575.001H1649.2ZM1612 629.001L1544.8 821.601H1720L1652.8 629.001C1650.4 623.401 1648.2 617.801 1646.2 612.201C1644.6 606.601 1642.8 601.001 1640.8 595.401H1624C1622 601.001 1620 606.601 1618 612.201C1616 617.801 1614 623.401 1612 629.001ZM1987.24 692.601C1998.84 692.601 2012.64 693.401 2028.64 695.001C2044.64 696.601 2059.04 699.601 2071.84 704.001L2067.64 720.201C2056.44 718.201 2043.24 716.801 2028.04 716.001C2013.24 714.801 2001.04 714.201 1991.44 714.201C1963.84 714.201 1941.84 718.001 1925.44 725.601C1909.04 733.201 1897.24 746.601 1890.04 765.801C1882.84 784.601 1879.24 810.801 1879.24 844.401C1879.24 878.001 1882.84 904.401 1890.04 923.601C1897.24 942.401 1909.04 955.601 1925.44 963.201C1941.84 970.801 1963.84 974.601 1991.44 974.601C1997.04 974.601 2004.64 974.401 2014.24 974.001C2024.24 973.601 2034.64 973.001 2045.44 972.201C2056.24 971.001 2066.04 969.601 2074.84 968.001L2078.44 984.801C2064.84 988.401 2050.04 991.201 2034.04 993.201C2018.44 995.201 2003.04 996.201 1987.84 996.201C1955.44 996.201 1929.44 991.401 1909.84 981.801C1890.24 971.801 1876.04 955.801 1867.24 933.801C1858.44 911.401 1854.04 881.601 1854.04 844.401C1854.04 807.201 1858.44 777.601 1867.24 755.601C1876.04 733.201 1890.24 717.201 1909.84 707.601C1929.44 697.601 1955.24 692.601 1987.24 692.601ZM2302.51 699.801V720.201H2199.31V925.401C2199.31 955.801 2214.71 971.001 2245.51 971.001H2295.91L2298.91 988.401C2290.51 990.001 2280.51 991.201 2268.91 992.001C2257.71 992.801 2249.31 993.201 2243.71 993.201C2220.91 993.201 2203.71 987.601 2192.11 976.401C2180.91 964.801 2175.31 948.601 2175.31 927.801V720.201H2123.11V702.801L2175.31 700.401V610.401H2199.31V699.801H2302.51ZM2390.97 579.201C2397.37 579.201 2400.57 582.401 2400.57 588.801V624.801C2400.57 631.201 2397.37 634.401 2390.97 634.401H2380.77C2374.37 634.401 2371.17 631.201 2371.17 624.801V588.801C2371.17 582.401 2374.37 579.201 2380.77 579.201H2390.97ZM2397.57 699.801V989.001H2374.17V699.801H2397.57ZM2745.31 699.801L2630.11 982.401C2627.71 986.801 2624.11 989.001 2619.31 989.001H2595.31C2590.91 989.001 2587.51 986.801 2585.11 982.401L2469.91 699.801H2495.71L2582.11 915.801C2585.71 925.001 2589.31 934.201 2592.91 943.401C2596.51 952.201 2600.11 961.001 2603.71 969.801H2611.51C2615.11 960.601 2618.71 951.601 2622.31 942.801C2625.91 933.601 2629.71 924.601 2633.71 915.801L2719.51 699.801H2745.31ZM2924 692.601C2963.2 692.601 2992.2 699.801 3011 714.201C3030.2 728.201 3040 749.401 3040.4 777.801C3040.8 803.401 3036.2 823.001 3026.6 836.601C3017 849.801 3000.4 856.401 2976.8 856.401H2822.6C2823.8 886.401 2828.2 910.001 2835.8 927.201C2843.8 944.401 2855.6 956.601 2871.2 963.801C2887.2 971.001 2907.4 974.601 2931.8 974.601C2950.2 974.601 2968.2 973.801 2985.8 972.201C3003.4 970.601 3018.4 969.001 3030.8 967.401L3033.8 984.201C3026.6 986.601 3016.8 988.601 3004.4 990.201C2992 992.201 2979 993.601 2965.4 994.401C2951.8 995.601 2939.6 996.201 2928.8 996.201C2882 996.201 2848.4 984.601 2828 961.401C2807.6 937.801 2797.4 898.401 2797.4 843.201C2797.4 806.001 2801.6 776.401 2810 754.401C2818.8 732.401 2832.4 716.601 2850.8 707.001C2869.6 697.401 2894 692.601 2924 692.601ZM2925.2 714.201C2900 714.201 2880 718.201 2865.2 726.201C2850.4 733.801 2839.6 746.601 2832.8 764.601C2826.4 782.201 2823 806.201 2822.6 836.601H2973.2C2989.6 836.601 3001 831.401 3007.4 821.001C3013.8 810.601 3016.6 796.601 3015.8 779.001C3015.4 756.201 3007.8 739.801 2993 729.801C2978.2 719.401 2955.6 714.201 2925.2 714.201ZM3215.76 575.001V915.201C3215.76 967.601 3190.76 993.601 3140.76 993.201C3134.76 993.201 3127.56 992.601 3119.16 991.401C3110.76 990.601 3103.76 989.601 3098.16 988.401L3101.16 971.601H3134.76C3172.36 971.601 3191.16 952.801 3191.16 915.201V575.001H3215.76ZM3438.44 568.401C3457.64 568.401 3476.84 569.201 3496.04 570.801C3515.64 572.001 3534.84 574.001 3553.64 576.801L3551.24 594.801C3533.64 594.001 3515.24 593.201 3496.04 592.401C3476.84 591.201 3457.84 590.601 3439.04 590.601C3421.04 590.601 3405.44 591.201 3392.24 592.401C3379.44 593.601 3368.84 596.801 3360.44 602.001C3352.04 607.201 3345.84 615.601 3341.84 627.201C3338.24 638.801 3336.44 655.001 3336.44 675.801C3336.44 703.801 3341.04 724.201 3350.24 737.001C3359.84 749.401 3375.84 757.401 3398.24 761.001L3488.24 776.001C3518.64 780.801 3540.04 791.601 3552.44 808.401C3565.24 825.201 3571.64 851.201 3571.64 886.401C3571.64 919.201 3566.64 943.401 3556.64 959.001C3547.04 974.201 3532.64 984.201 3513.44 989.001C3494.24 993.401 3470.44 995.601 3442.04 995.601C3426.44 995.601 3408.44 995.201 3388.04 994.401C3367.64 993.601 3344.44 991.401 3318.44 987.801L3320.24 969.201C3337.44 970.401 3352.64 971.401 3365.84 972.201C3379.04 972.601 3391.64 973.001 3403.64 973.401C3415.64 973.401 3428.84 973.401 3443.24 973.401C3468.44 973.001 3488.44 970.801 3503.24 966.801C3518.44 962.801 3529.44 954.801 3536.24 942.801C3543.04 930.401 3546.44 911.601 3546.44 886.401C3546.44 856.001 3541.44 834.801 3531.44 822.801C3521.84 810.401 3505.44 802.401 3482.24 798.801L3392.24 783.801C3362.64 779.401 3341.64 768.601 3329.24 751.401C3317.24 733.801 3311.24 708.401 3311.24 675.201C3311.24 650.401 3313.84 630.801 3319.04 616.401C3324.24 602.001 3332.04 591.401 3342.44 584.601C3353.24 577.401 3366.44 572.801 3382.04 570.801C3398.04 568.801 3416.84 568.001 3438.44 568.401Z" fill="#0169FF"/>
<path d="M2436.94 538.073C2444.65 534.117 2452.94 542.272 2449.12 550.049L2428.2 592.634C2426.95 595.187 2426.97 598.182 2428.27 600.712L2449.93 642.926C2453.89 650.635 2445.74 658.934 2437.96 655.113L2395.37 634.19C2392.82 632.936 2389.82 632.962 2387.29 634.26L2345.08 655.924C2337.37 659.88 2329.07 651.725 2332.89 643.948L2353.82 601.362C2355.07 598.81 2355.04 595.814 2353.75 593.284L2332.08 551.07C2328.13 543.361 2336.28 535.062 2344.06 538.884L2386.64 559.807C2389.2 561.061 2392.19 561.034 2394.72 559.736L2436.94 538.073Z" fill="#0169FF"/>
</svg>
