<svg width="3926" height="1569" viewBox="0 0 3926 1569" fill="none" xmlns="http://www.w3.org/2000/svg">
<g filter="url(#filter0_d)">
<rect x="24.9907" y="24.0015" width="3857" height="1500" rx="300" fill="white"/>
</g>
<path d="M1210.58 1205.06C1219.26 1224.59 1210.52 1243.14 1192.02 1254.16C1173.39 1265.24 1147.14 1266.82 1126.04 1251.75L900.329 1090.53C891.375 1084.13 885.581 1075.68 883.358 1066.73L840.888 895.832C832.023 860.155 797.712 844.249 766.62 844.65C735.535 845.051 701.718 861.847 694.126 897.83L658.459 1066.87C656.523 1076.05 650.844 1084.8 641.818 1091.45L424.557 1251.55C403.793 1266.85 377.536 1265.65 358.68 1254.82C339.931 1244.04 330.848 1225.59 339.103 1205.98L714.608 314.121C722.397 295.619 742.298 285.163 764.143 285.002C785.984 284.841 806.141 295.006 814.332 313.437L1210.58 1205.06Z" stroke="#0169FF" stroke-width="22"/>
<path d="M1674.19 599.002C1679.79 599.002 1683.39 601.602 1684.99 606.802L1829.59 1013H1803.79L1752.79 867.202H1561.99L1510.99 1013H1485.19L1629.79 606.802C1631.39 601.602 1634.99 599.002 1640.59 599.002H1674.19ZM1636.99 653.002L1569.79 845.602H1744.99L1677.79 653.002C1675.39 647.402 1673.19 641.802 1671.19 636.202C1669.59 630.602 1667.79 625.002 1665.79 619.402H1648.99C1646.99 625.002 1644.99 630.602 1642.99 636.202C1640.99 641.802 1638.99 647.402 1636.99 653.002ZM2012.23 716.602C2023.83 716.602 2037.63 717.402 2053.63 719.002C2069.63 720.602 2084.03 723.602 2096.83 728.002L2092.63 744.202C2081.43 742.202 2068.23 740.802 2053.03 740.002C2038.23 738.802 2026.03 738.202 2016.43 738.202C1988.83 738.202 1966.83 742.002 1950.43 749.602C1934.03 757.202 1922.23 770.602 1915.03 789.802C1907.83 808.602 1904.23 834.802 1904.23 868.402C1904.23 902.002 1907.83 928.402 1915.03 947.602C1922.23 966.402 1934.03 979.602 1950.43 987.202C1966.83 994.802 1988.83 998.602 2016.43 998.602C2022.03 998.602 2029.63 998.402 2039.23 998.002C2049.23 997.602 2059.63 997.002 2070.43 996.202C2081.23 995.002 2091.03 993.602 2099.83 992.002L2103.43 1008.8C2089.83 1012.4 2075.03 1015.2 2059.03 1017.2C2043.43 1019.2 2028.03 1020.2 2012.83 1020.2C1980.43 1020.2 1954.43 1015.4 1934.83 1005.8C1915.23 995.802 1901.03 979.802 1892.23 957.802C1883.43 935.402 1879.03 905.602 1879.03 868.402C1879.03 831.202 1883.43 801.602 1892.23 779.602C1901.03 757.202 1915.23 741.202 1934.83 731.602C1954.43 721.602 1980.23 716.602 2012.23 716.602ZM2327.5 723.802V744.202H2224.3V949.402C2224.3 979.802 2239.7 995.002 2270.5 995.002H2320.9L2323.9 1012.4C2315.5 1014 2305.5 1015.2 2293.9 1016C2282.7 1016.8 2274.3 1017.2 2268.7 1017.2C2245.9 1017.2 2228.7 1011.6 2217.1 1000.4C2205.9 988.802 2200.3 972.602 2200.3 951.802V744.202H2148.1V726.802L2200.3 724.402V634.402H2224.3V723.802H2327.5ZM2415.96 603.202C2422.36 603.202 2425.56 606.402 2425.56 612.802V648.802C2425.56 655.202 2422.36 658.402 2415.96 658.402H2405.76C2399.36 658.402 2396.16 655.202 2396.16 648.802V612.802C2396.16 606.402 2399.36 603.202 2405.76 603.202H2415.96ZM2422.56 723.802V1013H2399.16V723.802H2422.56ZM2770.3 723.802L2655.1 1006.4C2652.7 1010.8 2649.1 1013 2644.3 1013H2620.3C2615.9 1013 2612.5 1010.8 2610.1 1006.4L2494.9 723.802H2520.7L2607.1 939.802C2610.7 949.002 2614.3 958.202 2617.9 967.402C2621.5 976.202 2625.1 985.002 2628.7 993.802H2636.5C2640.1 984.602 2643.7 975.602 2647.3 966.802C2650.9 957.602 2654.7 948.602 2658.7 939.802L2744.5 723.802H2770.3ZM2948.99 716.602C2988.19 716.602 3017.19 723.802 3035.99 738.202C3055.19 752.202 3064.99 773.402 3065.39 801.802C3065.79 827.402 3061.19 847.002 3051.59 860.602C3041.99 873.802 3025.39 880.402 3001.79 880.402H2847.59C2848.79 910.402 2853.19 934.002 2860.79 951.202C2868.79 968.402 2880.59 980.602 2896.19 987.802C2912.19 995.002 2932.39 998.602 2956.79 998.602C2975.19 998.602 2993.19 997.802 3010.79 996.202C3028.39 994.602 3043.39 993.002 3055.79 991.402L3058.79 1008.2C3051.59 1010.6 3041.79 1012.6 3029.39 1014.2C3016.99 1016.2 3003.99 1017.6 2990.39 1018.4C2976.79 1019.6 2964.59 1020.2 2953.79 1020.2C2906.99 1020.2 2873.39 1008.6 2852.99 985.402C2832.59 961.802 2822.39 922.402 2822.39 867.202C2822.39 830.002 2826.59 800.402 2834.99 778.402C2843.79 756.402 2857.39 740.602 2875.79 731.002C2894.59 721.402 2918.99 716.602 2948.99 716.602ZM2950.19 738.202C2924.99 738.202 2904.99 742.202 2890.19 750.202C2875.39 757.802 2864.59 770.602 2857.79 788.602C2851.39 806.202 2847.99 830.202 2847.59 860.602H2998.19C3014.59 860.602 3025.99 855.402 3032.39 845.002C3038.79 834.602 3041.59 820.602 3040.79 803.002C3040.39 780.202 3032.79 763.802 3017.99 753.802C3003.19 743.402 2980.59 738.202 2950.19 738.202ZM3240.75 599.002V939.202C3240.75 991.602 3215.75 1017.6 3165.75 1017.2C3159.75 1017.2 3152.55 1016.6 3144.15 1015.4C3135.75 1014.6 3128.75 1013.6 3123.15 1012.4L3126.15 995.602H3159.75C3197.35 995.602 3216.15 976.802 3216.15 939.202V599.002H3240.75ZM3463.43 592.402C3482.63 592.402 3501.83 593.202 3521.03 594.802C3540.63 596.002 3559.83 598.002 3578.63 600.802L3576.23 618.802C3558.63 618.002 3540.23 617.202 3521.03 616.402C3501.83 615.202 3482.83 614.602 3464.03 614.602C3446.03 614.602 3430.43 615.202 3417.23 616.402C3404.43 617.602 3393.83 620.802 3385.43 626.002C3377.03 631.202 3370.83 639.602 3366.83 651.202C3363.23 662.802 3361.43 679.002 3361.43 699.802C3361.43 727.802 3366.03 748.202 3375.23 761.002C3384.83 773.402 3400.83 781.402 3423.23 785.002L3513.23 800.002C3543.63 804.802 3565.03 815.602 3577.43 832.402C3590.23 849.202 3596.63 875.202 3596.63 910.402C3596.63 943.202 3591.63 967.402 3581.63 983.002C3572.03 998.202 3557.63 1008.2 3538.43 1013C3519.23 1017.4 3495.43 1019.6 3467.03 1019.6C3451.43 1019.6 3433.43 1019.2 3413.03 1018.4C3392.63 1017.6 3369.43 1015.4 3343.43 1011.8L3345.23 993.202C3362.43 994.402 3377.63 995.402 3390.83 996.202C3404.03 996.602 3416.63 997.002 3428.63 997.402C3440.63 997.402 3453.83 997.402 3468.23 997.402C3493.43 997.002 3513.43 994.802 3528.23 990.802C3543.43 986.802 3554.43 978.802 3561.23 966.802C3568.03 954.402 3571.43 935.602 3571.43 910.402C3571.43 880.002 3566.43 858.802 3556.43 846.802C3546.83 834.402 3530.43 826.402 3507.23 822.802L3417.23 807.802C3387.63 803.402 3366.63 792.602 3354.23 775.402C3342.23 757.802 3336.23 732.402 3336.23 699.202C3336.23 674.402 3338.83 654.802 3344.03 640.402C3349.23 626.002 3357.03 615.402 3367.43 608.602C3378.23 601.402 3391.43 596.802 3407.03 594.802C3423.03 592.802 3441.83 592.002 3463.43 592.402Z" fill="#0169FF"/>
<path d="M2461.93 562.074C2469.64 558.118 2477.94 566.273 2474.11 574.05L2453.19 616.636C2451.94 619.188 2451.96 622.184 2453.26 624.714L2474.92 666.928C2478.88 674.637 2470.73 682.935 2462.95 679.114L2420.36 658.191C2417.81 656.937 2414.82 656.963 2412.29 658.262L2370.07 679.925C2362.36 683.881 2354.06 675.726 2357.88 667.949L2378.81 625.363C2380.06 622.811 2380.04 619.816 2378.74 617.286L2357.07 575.072C2353.12 567.362 2361.27 559.064 2369.05 562.885L2411.64 583.808C2414.19 585.062 2417.18 585.036 2419.71 583.737L2461.93 562.074Z" fill="#0169FF"/>
<defs>
<filter id="filter0_d" x="0.990723" y="0.00146484" width="3925" height="1568" filterUnits="userSpaceOnUse" color-interpolation-filters="sRGB">
<feFlood flood-opacity="0" result="BackgroundImageFix"/>
<feColorMatrix in="SourceAlpha" type="matrix" values="0 0 0 0 0 0 0 0 0 0 0 0 0 0 0 0 0 0 127 0"/>
<feMorphology radius="10" operator="dilate" in="SourceAlpha" result="effect1_dropShadow"/>
<feOffset dx="10" dy="10"/>
<feGaussianBlur stdDeviation="12"/>
<feColorMatrix type="matrix" values="0 0 0 0 0 0 0 0 0 0 0 0 0 0 0 0 0 0 0.06 0"/>
<feBlend mode="normal" in2="BackgroundImageFix" result="effect1_dropShadow"/>
<feBlend mode="normal" in="SourceGraphic" in2="effect1_dropShadow" result="shape"/>
</filter>
</defs>
</svg>
